<?xml version='1.0' encoding='iso-8859-1'?>
<svg version="1.1" xmlns="http://www.w3.org/2000/svg" viewBox="0 0 44 44" xmlns:xlink="http://www.w3.org/1999/xlink" enable-background="new 0 0 44 44">
  <g>
    <g>
      <g>
        <path fill-rule="evenodd" d="m43,23.142h-8c-0.552,0-1,0.447-1,1v4c0,0.552 0.448,1 1,1h8c0.552,0 1-0.448 1-1v-4c0-0.553-0.448-1-1-1zm-1,4h-6v-2h6v2zm-3,4c-0.552,0-1,0.447-1,1v8h-36v-28h36v8c0,0.552 0.448,1 1,1s1-0.448 1-1v-9c0-0.553-0.448-1-1-1h-38c-0.552,0-1,0.447-1,1v30c0,0.552 0.448,1 1,1h38c0.552,0 1-0.448 1-1v-9c0-0.553-0.448-1-1-1z"/>
      </g>
    </g>
    <g>
      <g>
        <path d="m32.285,3.008c-0.276-0.479-0.888-0.643-1.366-0.366l-6.163,3.558-4.049-4.049c-0.391-0.391-1.023-0.391-1.414,0l-7.992,7.991h2.829l5.87-5.87 2.963,2.963-5.035,2.907h4l9.124-5.268 3.041,5.268h2.31l-4.118-7.134z"/>
      </g>
    </g>
  </g>
</svg>
