<?xml version="1.0" encoding="UTF-8"?>
<svg width="25px" height="15px" viewBox="0 0 25 15" version="1.1" xmlns="http://www.w3.org/2000/svg" xmlns:xlink="http://www.w3.org/1999/xlink">
    <!-- Generator: sketchtool 45.2 (43514) - http://www.bohemiancoding.com/sketch -->
    <title>C09B3510-FDBF-491A-8661-53728C6A8C5D</title>
    <desc>Created with sketchtool.</desc>
    <defs></defs>
    <g id="Fashion" stroke="none" stroke-width="1" fill="none" fill-rule="evenodd">
        <g id="Xuper-Home-1" transform="translate(-904.000000, -1808.000000)" fill="#FFFFFF">
            <g id="Section-2" transform="translate(255.000000, 1311.000000)">
                <g id="List-Item" transform="translate(0.000000, 324.000000)">
                    <g id="Item-6" transform="translate(361.000000, 0.000000)">
                        <g id="Info" transform="translate(0.000000, 149.000000)">
                            <g id="Group-4" transform="translate(269.000000, 0.000000)">
                                <g id="quickview">
                                    <path d="M43.812327,30.881912 C44.057667,31.256006 44.057667,31.744526 43.812327,32.118962 C43.628061,32.40005 39.2111,39.000434 31.496636,39.000434 C23.782172,39.000434 19.365211,32.40005 19.180974,32.118962 C18.935605,31.744526 18.935605,31.256006 19.180974,30.881912 C19.365211,30.600824 23.782172,24.00008 31.496636,24.00008 C39.2111,24.00008 43.628061,30.600824 43.812327,30.881912 Z M31.496636,36.778136 C36.742272,36.778136 40.314318,33.015164 41.539626,31.500266 C40.315797,29.986772 36.743403,26.222378 31.496636,26.222378 C26.225161,26.222378 22.669819,29.983208 21.451935,31.498106 C22.675648,33.011942 26.248622,36.778136 31.496636,36.778136 Z M32.125501,26.93228 C33.316038,27.105008 34.369231,27.742658 35.091128,28.728644 C36.579321,30.761402 36.179556,33.658538 34.20019,35.186324 C33.413072,35.794292 32.474661,36.114368 31.506264,36.114368 C31.294999,36.114368 31.082371,36.098996 30.869511,36.067874 C29.67851,35.896226 28.624737,35.257856 27.902173,34.27151 C26.414096,32.239472 26.813484,29.342696 28.792531,27.81419 L28.792734,27.81383 C29.752576,27.073544 30.935544,26.760254 32.125501,26.93228 Z M33.217612,33.856304 C34.482853,32.879624 34.737734,31.027478 33.786041,29.72714 C33.325869,29.098778 32.654896,28.692158 31.89672,28.582736 C31.1404,28.472936 30.38669,28.672142 29.775457,29.14421 C28.510535,30.12089 28.255683,31.973036 29.20726,33.272654 C29.667983,33.901376 30.33942,34.308356 31.097828,34.417778 C31.8538,34.526858 32.606959,34.32803 33.217612,33.856304 Z M33.110718,29.847308 C33.31453,30.05294 33.428645,30.339032 33.428645,30.633728 C33.428645,30.925184 33.31453,31.211294 33.110718,31.419788 C32.909632,31.625078 32.629724,31.744526 32.344422,31.744526 C32.056481,31.744526 31.776573,31.625078 31.575487,31.419788 C31.371675,31.211294 31.257473,30.925184 31.257473,30.633728 C31.257473,30.339032 31.371675,30.05294 31.575487,29.847308 C31.776573,29.639156 32.056481,29.52257 32.344422,29.52257 C32.629724,29.52257 32.909632,29.639156 33.110718,29.847308 Z" id="Combined-shape-5284"></path>
                                </g>
                            </g>
                        </g>
                    </g>
                </g>
            </g>
        </g>
    </g>
</svg>