<?xml version="1.0" encoding="UTF-8"?>
<svg width="25px" height="20px" viewBox="0 0 25 20" version="1.1" xmlns="http://www.w3.org/2000/svg" xmlns:xlink="http://www.w3.org/1999/xlink">
    <!-- Generator: sketchtool 45.2 (43514) - http://www.bohemiancoding.com/sketch -->
    <title>C759E965-E668-447F-A405-4787E76E23CB</title>
    <desc>Created with sketchtool.</desc>
    <defs></defs>
    <g id="Fashion" stroke="none" stroke-width="1" fill="none" fill-rule="evenodd">
        <g id="Xuper-Home-1" transform="translate(-543.000000, -1985.000000)" fill="#FFFFFF">
            <g id="Section-2" transform="translate(255.000000, 1311.000000)">
                <g id="List-Item" transform="translate(0.000000, 324.000000)">
                    <g id="Item-8">
                        <g id="Info" transform="translate(0.000000, 149.000000)">
                            <g id="Group-4" transform="translate(269.000000, 0.000000)">
                                <g id="cart" transform="translate(1.000000, 181.000000)">
                                    <path d="M42.953093,24.506248 L40.047322,33.851056 C39.843046,34.506942 39.248633,34.943972 38.568148,34.943972 L27.336013,34.943972 C26.691604,34.943972 26.064218,34.538072 25.839468,33.927594 L21.560286,22.21849 L19.078524,22.21849 C18.477934,22.21849 17.991111,21.718892 17.991111,21.112 C17.991111,20.505108 18.477934,20.005488 19.078524,20.005488 L22.31127,20.005488 C22.763293,20.005488 23.171381,20.322002 23.331606,20.749352 L27.769621,32.73097 L38.109948,32.73097 L40.433776,25.261552 L27.617545,25.261552 C27.016955,25.261552 26.530016,24.761954 26.530016,24.155062 C26.530016,23.548148 27.016955,23.04855 27.617545,23.04855 L41.915676,23.04855 C42.262081,23.04855 42.587548,23.235594 42.79252,23.517766 C42.997376,23.799938 43.057,24.172222 42.953093,24.506248 Z M27.889797,36.420964 C28.354638,36.420964 28.808865,36.610516 29.137783,36.943112 C29.466788,37.275708 29.656999,37.737048 29.656999,38.206968 C29.656999,38.676888 29.466788,39.138228 29.137783,39.470824 C28.808865,39.803068 28.354638,39.992598 27.889797,39.992598 C27.424927,39.992598 26.968206,39.803068 26.639288,39.470824 C26.310167,39.138228 26.122595,38.676888 26.122595,38.206968 C26.122595,37.737048 26.310167,37.275708 26.639288,36.943112 C26.968206,36.610516 27.424927,36.420964 27.889797,36.420964 Z M37.647253,36.420964 C38.112239,36.420964 38.566205,36.610516 38.895123,36.943112 C39.224128,37.275708 39.414455,37.737048 39.414455,38.206968 C39.414455,38.676888 39.224128,39.138228 38.895123,39.470824 C38.566205,39.803068 38.112239,39.992598 37.647253,39.992598 C37.179773,39.992598 36.725546,39.803068 36.396657,39.470824 C36.067739,39.138228 35.880167,38.676888 35.880167,38.206968 C35.880167,37.737048 36.067739,37.275708 36.396657,36.943112 C36.725546,36.610516 37.179773,36.420964 37.647253,36.420964 Z" id="Combined-shape-5206"></path>
                                </g>
                            </g>
                        </g>
                    </g>
                </g>
            </g>
        </g>
    </g>
</svg>