<?xml version="1.0" encoding="UTF-8"?>
<svg width="25px" height="17px" viewBox="0 0 25 17" version="1.1" xmlns="http://www.w3.org/2000/svg" xmlns:xlink="http://www.w3.org/1999/xlink">
    <!-- Generator: sketchtool 45.2 (43514) - http://www.bohemiancoding.com/sketch -->
    <title>95FF7E2B-1FCB-45C6-9928-DBF8DB8F5496</title>
    <desc>Created with sketchtool.</desc>
    <defs></defs>
    <g id="Fashion" stroke="none" stroke-width="1" fill="none" fill-rule="evenodd">
        <g id="Xuper-Home-1" transform="translate(-904.000000, -1867.000000)" fill="#FFFFFF">
            <g id="Section-2" transform="translate(255.000000, 1311.000000)">
                <g id="List-Item" transform="translate(0.000000, 324.000000)">
                    <g id="Item-6" transform="translate(361.000000, 0.000000)">
                        <g id="Info" transform="translate(0.000000, 149.000000)">
                            <g id="Group-4" transform="translate(269.000000, 0.000000)">
                                <g id="Compare" transform="translate(0.000000, 60.000000)">
                                    <path d="M44.000001,34.01934 C44.000001,34.30258 43.884657,34.57222 43.679565,34.7725 L38.621061,39.69846 C38.408976,39.90482 38.131686,39.99958 37.854531,39.99958 C37.575405,39.99958 37.296279,39.87764 37.084005,39.66842 C36.660564,39.25178 36.6624,38.54296 37.088001,38.12812 L40.278942,34.94952 L29.663541,34.94952 C29.063169,34.94952 28.576575,34.4753 28.576575,33.887 C28.576575,33.29906 29.063169,32.8245 29.663541,32.8245 L40.278942,32.8245 L37.088001,29.78036 C36.6624,29.36552 36.660564,28.7572 37.084005,28.3402 C37.507311,27.9232 38.195568,27.92142 38.621061,28.33626 L43.679565,33.26652 C43.884657,33.46608 44.000001,33.73574 44.000001,34.01934 Z M22.721085,30.16804 L25.911918,33.21216 C26.337654,33.62702 26.33949,34.23534 25.916049,34.65268 C25.70364,34.8619 25.424649,34.96704 25.145388,34.96704 C24.868341,34.96704 24.590943,34.86404 24.378993,34.65734 L19.320462,29.72816 C19.115289,29.52824 19.000026,29.25858 19.000026,28.97534 C19.000026,28.69174 19.115289,28.42424 19.320462,28.22432 L24.378993,23.30266 C24.804378,22.8878 25.492608,22.90676 25.916049,23.32376 C26.33949,23.7411 26.337654,24.44956 25.911918,24.86442 L22.721085,28.04302 L33.336513,28.04302 C33.93675,28.04302 34.423479,28.51722 34.423479,29.10552 C34.423479,29.69382 33.93675,30.16804 33.336513,30.16804 L22.721085,30.16804 Z" id="Combined-shape-5279"></path>
                                </g>
                            </g>
                        </g>
                    </g>
                </g>
            </g>
        </g>
    </g>
</svg>