<?xml version="1.0" encoding="UTF-8"?>
<svg width="24px" height="21px" viewBox="0 0 24 21" version="1.1" xmlns="http://www.w3.org/2000/svg" xmlns:xlink="http://www.w3.org/1999/xlink">
    <!-- Generator: sketchtool 45.2 (43514) - http://www.bohemiancoding.com/sketch -->
    <title>E7110216-919C-480A-B447-8C619B92E6A9</title>
    <desc>Created with sketchtool.</desc>
    <defs></defs>
    <g id="Fashion" stroke="none" stroke-width="1" fill="none" fill-rule="evenodd">
        <g id="Xuper-Home-1" transform="translate(-904.000000, -1924.000000)">
            <g id="Section-2" transform="translate(255.000000, 1311.000000)">
                <g id="List-Item" transform="translate(0.000000, 324.000000)">
                    <g id="Item-6" transform="translate(361.000000, 0.000000)">
                        <g id="Info" transform="translate(0.000000, 149.000000)">
                            <g id="Group-4" transform="translate(269.000000, 0.000000)">
                                <g id="whislist" transform="translate(0.000000, 120.000000)">
                                    <g id="Group-4" transform="translate(19.000000, 20.000000)">
                                        <polygon id="Fill-2" fill="#000000" points="21.553288 1.94540439 21.5540432 1.94615398 21.5529103 1.94502962"></polygon>
                                        <path d="M21.5565819,1.94870051 C21.5553427,1.94741573 21.5540586,1.94617682 21.553049,1.9451672 C18.9678782,-0.641242698 14.7604363,-0.642160424 12.1739815,1.94296487 C12.1737518,1.94324003 12.173385,1.9435614 12.1731091,1.94383656 C12.1727884,1.94420379 12.1723291,1.94461653 12.1719622,1.94498376 L11.7478912,2.36910029 L11.3237747,1.94498376 C10.0709257,0.692088936 8.40511017,0.0021135631 6.63329992,0.0021135631 C4.86144351,0.0021135631 3.19572003,0.692134799 1.94282521,1.94498376 C0.689975419,3.19787858 0,4.86364828 0,6.63545848 C0,8.40731493 0.689975419,10.0730388 1.94287019,11.3259794 L11.0768198,20.4599292 C11.2548545,20.6379639 11.4962565,20.7379023 11.7479822,20.7379023 C11.999708,20.7379023 12.2411107,20.6379191 12.4190992,20.4599292 L21.5528193,11.3261629 C24.1385418,8.74154239 24.1400541,4.53547711 21.5565819,1.94870051 Z M20.2106778,9.98370002 L11.7478912,18.4464874 L3.28510357,9.98365381 C2.39080153,9.08930593 1.89826997,7.90028283 1.89826997,6.63545779 C1.89826997,5.37072443 2.39080153,4.18161034 3.28510357,3.28730798 C4.20822177,2.36419012 5.42078325,1.90267671 6.63329923,1.90267671 C7.84586074,1.90267671 9.05842293,2.36418977 9.98149525,3.28730798 L11.0767743,4.38254145 C11.4474349,4.75320206 12.0483476,4.75320206 12.4190082,4.38254145 L13.5142872,3.28730798 C13.5143796,3.28726209 13.5144244,3.28717037 13.5145168,3.28707864 C13.5150209,3.28657386 13.5155264,3.28606903 13.5160305,3.28556457 C15.3615325,1.44088865 18.3632953,1.44088865 20.2087048,3.2852894 C20.2100351,3.28662007 20.2113668,3.28795069 20.212375,3.28900619 C22.0576025,5.13515051 22.0569598,8.1382436 20.2106778,9.98370002 Z" id="Fill-3" fill="#FFFFFF"></path>
                                    </g>
                                </g>
                            </g>
                        </g>
                    </g>
                </g>
            </g>
        </g>
    </g>
</svg>