<?xml version="1.0" encoding="UTF-8"?>
<svg width="46px" height="43px" viewBox="0 0 46 43" version="1.1" xmlns="http://www.w3.org/2000/svg" xmlns:xlink="http://www.w3.org/1999/xlink">
    <!-- Generator: sketchtool 45.2 (43514) - http://www.bohemiancoding.com/sketch -->
    <title>B2EB1BB7-8A60-4D22-84CF-C9DC1E1D9675</title>
    <desc>Created with sketchtool.</desc>
    <defs></defs>
    <g id="Fashion" stroke="none" stroke-width="1" fill="none" fill-rule="evenodd">
        <g id="Xuper-Home-1" transform="translate(-1109.000000, -1364.000000)" fill="#EA977D">
            <g id="Section-2" transform="translate(255.000000, 1311.000000)">
                <g id="Subscription">
                    <g id="Group-2" transform="translate(151.000000, 44.000000)">
                        <g id="Group" transform="translate(700.000000, 7.000000)">
                            <g id="Icon">
                                <path d="M48.761916,17.650239 C49.197915,19.179431 49.017018,20.65932 48.239268,21.929965 C47.247726,23.548927 45.492102,24.474122 44.175129,24.970489 L47.102172,35.239096 C47.301429,35.937516 47.106048,36.688905 46.592325,37.202098 C46.212171,37.582234 45.701559,37.78753 45.178554,37.78753 C44.995209,37.78753 44.810385,37.76215 44.628978,37.710638 C34.480488,34.809187 30.741933,34.722284 22.444743,35.960076 L19.563345,36.790472 L20.231802,39.135772 C20.387556,39.681912 20.686722,40.175788 21.096405,40.563444 L22.137927,41.550115 C22.939698,42.309729 22.974123,43.575392 22.214376,44.377541 C21.821268,44.792739 21.29199,45.001983 20.762253,45.001983 C20.268165,45.001983 19.773822,44.820281 19.386885,44.454057 L18.346026,43.468091 C17.415735,42.587593 16.737588,41.468617 16.385076,40.232282 L15.715752,37.884115 C14.911074,38.080434 14.096298,38.184163 13.285245,38.184163 C11.571135,38.184163 9.874773,37.749272 8.331768,36.894906 C5.910084,35.554137 4.1565,33.342928 3.39456,30.669662 C1.82937,25.178276 4.994685,19.426228 10.450512,17.847263 L16.647981,16.060558 C24.52539,12.593368 27.469722,10.648931 34.629816,2.66631 C35.115846,2.124165 35.85861,1.889917 36.568122,2.053007 C37.277787,2.216426 37.842663,2.753213 38.042124,3.453466 L40.973655,13.737771 C42.358713,13.493888 44.364645,13.388749 46.073808,14.274934 C47.398788,14.962309 48.328314,16.129225 48.761916,17.650239 Z M10.26936,33.395521 C11.735712,34.207681 13.428606,34.397561 15.035616,33.933013 L19.549932,32.63163 L18.129837,27.64916 L16.06143,20.392501 L11.560731,21.689983 C8.216967,22.657713 6.278457,26.194651 7.241388,29.572823 C7.70967,31.216131 8.785209,32.573679 10.26936,33.395521 Z M30.637434,31.198976 C34.128231,31.198976 37.539162,31.707516 42.283182,32.925239 L35.174802,7.986757 C29.613099,13.875105 26.214765,16.118885 19.829769,19.01996 L20.546829,21.536199 L23.464641,31.772611 C26.13444,31.407797 28.402053,31.198976 30.637434,31.198976 Z M44.830428,19.836397 C44.963385,19.617518 45.077472,19.316436 44.915088,18.746373 C44.748114,18.160894 44.47608,17.952402 44.231892,17.825831 C43.673646,17.535794 42.835359,17.529684 42.080304,17.620535 L43.072713,21.102389 C43.778451,20.801307 44.507445,20.368907 44.830428,19.836397 Z M32.168556,16.526939 C32.735625,17.309395 32.561103,18.403743 31.778661,18.971315 C29.951943,20.295258 27.841206,21.399946 27.75216,21.446429 C27.493743,21.581272 27.21717,21.64491 26.944779,21.64491 C26.313297,21.64491 25.703898,21.302327 25.391727,20.704017 C24.944712,19.847489 25.276671,18.790365 26.133522,18.343301 C26.152953,18.332914 28.110588,17.306904 29.72433,16.137121 C30.507537,15.570254 31.601181,15.745141 32.168556,16.526939 Z" id="Combined-shape-9742"></path>
                            </g>
                        </g>
                    </g>
                </g>
            </g>
        </g>
    </g>
</svg>